<svg width="800" height="800" viewBox="0 0 800 800" fill="none" xmlns="http://www.w3.org/2000/svg">
<path fill-rule="evenodd" clip-rule="evenodd" d="M142.9 730.445L56.916 623.327C36.2282 597.557 25 565.865 25 533.247V145.375C25 96.516 64.0897 55.9742 114.518 52.5312L513.303 25.3045C542.275 23.3265 571.07 31.0272 594.87 47.1175L734.98 141.848C760.062 158.805 775 186.525 775 216.107V657.08C775 704.895 736.565 744.482 687.19 747.522L244.583 774.767C205.183 777.192 167.1 760.593 142.9 730.445Z" fill="white"/>
<path fill-rule="evenodd" clip-rule="evenodd" d="M516.873 74.1695L118.087 101.396C94.1998 103.027 75.6835 122.231 75.6835 145.375V533.248C75.6835 554.992 83.169 576.12 96.9608 593.302L182.945 700.417C196.847 717.735 218.725 727.272 241.359 725.88L683.965 698.635C706.65 697.237 724.31 679.047 724.31 657.08V216.107C724.31 202.515 717.448 189.779 705.923 181.988L565.812 87.2573C551.532 77.6033 534.255 72.9828 516.873 74.1695ZM137.862 151.425C132.315 147.319 134.955 138.764 141.923 138.264L519.555 111.178C531.588 110.315 543.542 113.628 553.272 120.522L629.042 174.203C631.917 176.241 630.57 180.641 627.007 180.835L227.097 202.584C214.994 203.242 203.048 199.687 193.425 192.563L137.862 151.425ZM208.339 270.768C208.339 257.775 218.835 247.044 232.257 246.313L655.075 223.286C668.157 222.574 679.168 232.634 679.168 245.296V627.132C679.168 640.1 668.71 650.82 655.315 651.582L235.172 675.487C220.615 676.317 208.339 665.13 208.339 651.037V270.768Z" fill="black"/>
<path d="M581.887 304.051V384.69H573.977C569.289 366.087 564.089 352.757 558.376 344.7C552.663 336.497 544.826 329.979 534.865 325.145C529.299 322.508 519.558 321.189 505.642 321.189H483.449V551.023C483.449 566.258 484.255 575.779 485.866 579.588C487.624 583.396 490.92 586.766 495.754 589.695C500.734 592.479 507.473 593.87 515.969 593.87H525.856V602H369.851V593.87H379.738C388.381 593.87 395.339 592.332 400.612 589.256C404.421 587.205 407.424 583.689 409.621 578.709C411.232 575.193 412.038 565.965 412.038 551.023V321.189H390.505C370.437 321.189 355.861 325.438 346.779 333.934C334.035 345.799 325.979 362.718 322.609 384.69H314.26V304.051H581.887Z" fill="black"/>
</svg>
